<?xml version="1.0" encoding="UTF-8"?>
<svg version="1.1" xmlns="http://www.w3.org/2000/svg" width="500" height="500">
<path d="M0 0 C0.65739166 0.00565979 1.31478333 0.01131958 1.99209595 0.01715088 C4.07102441 0.03936225 6.14816413 0.0895208 8.2265625 0.140625 C9.64450618 0.16071011 11.06247715 0.17895735 12.48046875 0.1953125 C15.93807127 0.23917433 19.39464201 0.30809063 22.8515625 0.390625 C26.58937042 34.83596264 26.58937042 34.83596264 21.06005859 44.53222656 C16.37962909 49.23923263 10.58866572 51.93655737 4.58651733 54.63795471 C-2.76799307 57.97849826 -9.27090789 62.55757955 -15.9354248 67.08361816 C-19.62521992 69.57543578 -23.35525234 72.00541156 -27.08203125 74.44140625 C-28.58597865 75.42758623 -30.08972139 76.41407841 -31.59326172 77.40087891 C-32.34178406 77.89203186 -33.0903064 78.38318481 -33.86151123 78.88922119 C-36.95313867 80.91892424 -40.0432621 82.95090966 -43.13320923 84.98316956 C-46.11404543 86.94361537 -49.095438 88.90321402 -52.0769043 90.86270142 C-53.49249927 91.79332029 -54.90786627 92.72428606 -56.32299805 93.65560913 C-58.27586663 94.94068946 -60.22961944 96.22441428 -62.18359375 97.5078125 C-62.76206558 97.88894699 -63.34053741 98.27008148 -63.9365387 98.6627655 C-65.9736633 99.99934064 -67.96705183 101.29993216 -70.1484375 102.390625 C-72.01042489 113.64434224 -71.36272786 125.62719901 -71.46484375 137.0078125 C-71.48546459 138.96078886 -71.5064622 140.91376127 -71.52781677 142.86672974 C-71.5825086 147.95958217 -71.63214675 153.05247125 -71.68066406 158.14538574 C-71.73127013 163.36127917 -71.78675019 168.57712063 -71.84179688 173.79296875 C-71.94872956 183.99214291 -72.05031328 194.19136256 -72.1484375 204.390625 C-52.40686948 204.32997896 -32.66543631 204.25240062 -12.92401505 204.15491009 C-3.75680952 204.11002965 5.41035783 204.07059727 14.57763672 204.04418945 C22.57198334 204.02114642 30.56620836 203.98767844 38.56045842 203.94192344 C42.78959889 203.91807592 47.01861956 203.89929184 51.24782562 203.89301109 C55.23697357 203.88692164 59.22581534 203.86678428 63.21484947 203.83634949 C64.67076419 203.82763064 66.12671903 203.82383376 67.58265877 203.82561684 C81.97965254 203.83767051 94.14602006 201.417539 106.1015625 193.140625 C113.90250092 185.33968658 117.83927122 176.60526608 118.2890625 165.578125 C118.02200486 155.69699248 114.34412649 147.02847503 109.8515625 138.390625 C119.20717478 132.27207909 128.61370031 126.23986328 138.1015625 120.328125 C138.99383545 119.76843018 139.8861084 119.20873535 140.80541992 118.63208008 C142.07349487 117.84546997 142.07349487 117.84546997 143.3671875 117.04296875 C144.11258789 116.57882568 144.85798828 116.11468262 145.62597656 115.63647461 C147.9714956 114.32348825 150.33768399 113.33540314 152.8515625 112.390625 C166.30537871 132.03966929 169.24848302 157.27071827 165.24951172 180.34472656 C161.70088196 198.58860224 153.88433816 214.30590249 141.8515625 228.390625 C141.27921875 229.06480469 140.706875 229.73898437 140.1171875 230.43359375 C125.42798333 246.32265866 101.99286495 255.37179251 80.71457577 256.50437021 C74.60948288 256.68493931 68.50250969 256.64134165 62.39550781 256.61767578 C60.34450282 256.6171108 58.29349743 256.61742993 56.24249268 256.61856079 C50.70615383 256.6191319 45.1699026 256.60741689 39.63358402 256.59341288 C33.83602918 256.58086505 28.03847208 256.57973183 22.24090576 256.57736206 C11.27650266 256.57115917 0.31213971 256.55476452 -10.65224576 256.53466308 C-23.14079351 256.51226694 -35.62934324 256.50130132 -48.11790609 256.49127221 C-73.7947721 256.4703972 -99.47160255 256.43524447 -125.1484375 256.390625 C-125.2514424 232.7815814 -125.29737743 209.1730233 -125.27540779 185.56375027 C-125.26653678 174.60142236 -125.2763271 163.6397047 -125.33007812 152.67749023 C-125.37688158 143.12253073 -125.38864163 133.56827994 -125.3583554 124.0132423 C-125.34354159 118.9537837 -125.34625217 113.89570541 -125.39093399 108.83639336 C-125.4324519 104.07262309 -125.42705809 99.31119287 -125.38591576 94.54744148 C-125.37905588 92.80073809 -125.38923463 91.05387047 -125.41786766 89.30738831 C-125.62013404 76.10329394 -125.62013404 76.10329394 -121.943367 71.82450104 C-119.40849378 70.02126029 -116.97835365 68.66678226 -114.1484375 67.390625 C-113.18067383 66.7817041 -112.21291016 66.1727832 -111.21582031 65.54541016 C-110.43561523 65.09472168 -109.65541016 64.6440332 -108.8515625 64.1796875 C-107.96355957 63.66229004 -107.07555664 63.14489258 -106.16064453 62.61181641 C-105.24911621 62.08507324 -104.33758789 61.55833008 -103.3984375 61.015625 C-96.15679226 56.78280693 -89.02414342 52.46387815 -82 47.87890625 C-76.92892409 44.58063426 -71.78289892 41.40138309 -66.6484375 38.203125 C-57.77697722 32.67208003 -48.93665893 27.09513492 -40.12304688 21.47241211 C-33.20073851 17.0564785 -26.2623746 12.66662651 -19.3112793 8.29614258 C-18.587229 7.84005615 -17.86317871 7.38396973 -17.1171875 6.9140625 C-16.49263672 6.52138184 -15.86808594 6.12870117 -15.22460938 5.72412109 C-12.98184638 4.32264613 -12.98184638 4.32264613 -10.34716797 2.25732422 C-6.56058263 0.04756758 -4.35253457 -0.0744023 0 0 Z " fill="#5647E4" transform="translate(220.1484375,164.609375)"/>
<path d="M0 0 C56.28094823 -0.16121214 56.28094823 -0.16121214 79.91015625 -0.1953125 C85.30875698 -0.20316614 90.70735728 -0.21122448 96.10595703 -0.21972656 C97.12076442 -0.22130906 97.12076442 -0.22130906 98.15607297 -0.22292352 C109.0492215 -0.24027594 119.94228475 -0.2717862 130.83538288 -0.30861118 C142.03161145 -0.34614258 153.22781108 -0.3679625 164.42410326 -0.37635398 C170.70576861 -0.38155224 176.98724124 -0.39370339 183.2688446 -0.42292023 C189.19168405 -0.45024297 195.11425294 -0.45841107 201.03714943 -0.45243073 C203.20094591 -0.45352345 205.36475225 -0.46137604 207.52849388 -0.4768219 C228.81773189 -0.62123083 247.41846045 2.44440043 264 17 C264.99773437 17.85658203 264.99773437 17.85658203 266.015625 18.73046875 C282.18545594 33.65891503 292.05596622 59.00444207 293.13842773 80.78540039 C294.14081499 112.62406252 287.19824975 137.16360281 265.30419922 160.67285156 C250.95039459 175.57853437 233.38642196 186.80835032 215.7265625 197.36572266 C210.19938266 200.67866516 204.69541944 204.03016793 199.1875 207.375 C198.58631348 207.73992554 197.98512695 208.10485107 197.36572266 208.48083496 C175.99525634 221.38164898 175.99525634 221.38164898 155.07519531 234.9909668 C147.88640618 239.82147308 140.470264 244.28830188 133.07910156 248.80004883 C127.52958564 252.19307339 122.00642718 255.6164298 116.5390625 259.140625 C115.53045166 259.79063477 114.52184082 260.44064453 113.48266602 261.11035156 C111.57310404 262.34603501 109.66717227 263.58735125 107.76538086 264.83496094 C106.91596924 265.38442383 106.06655762 265.93388672 105.19140625 266.5 C104.08067749 267.22703125 104.08067749 267.22703125 102.94750977 267.96875 C101 269 101 269 98 269 C97.58061959 261.36952714 97.26202416 253.74025919 97.06738091 246.1008482 C96.97386768 242.55126079 96.84751732 239.00961152 96.64208984 235.46459961 C95.35166855 212.6076229 95.35166855 212.6076229 99.70800781 206.67330933 C103.89140776 202.97707111 108.55379235 200.85144349 113.74665833 198.92425537 C117.24578141 197.48901661 120.19430956 195.38777234 123.25 193.1875 C123.919104 192.73697266 124.58820801 192.28644531 125.27758789 191.82226562 C125.81633545 191.45810547 126.35508301 191.09394531 126.91015625 190.71875 C132.71388897 186.83122096 138.63209713 183.12136563 144.53417969 179.38574219 C149.90324453 175.98343509 155.24148371 172.54076713 160.55151367 169.04711914 C169.28738912 163.30421089 178.16766663 157.8846775 187.18896484 152.60229492 C219.03286624 135.00167263 219.03286624 135.00167263 238.58007812 106.00610352 C241.94581877 92.33802241 241.55639943 77.17515645 234.75 64.7109375 C230.84829292 58.79187051 224.69944466 54.18043149 217.76791096 52.43933201 C214.55882655 51.92997549 211.49878127 51.8594047 208.24858093 51.84178162 C207.58277333 51.83684364 206.91696572 51.83190566 206.23098212 51.82681805 C204.00775026 51.81150255 201.78454715 51.80309865 199.5612793 51.79467773 C197.96450042 51.78509453 196.36772405 51.77508419 194.77095032 51.76467896 C190.44082209 51.73767178 186.11068301 51.71663957 181.78051734 51.69667697 C177.25346388 51.67479157 172.7264437 51.64741538 168.19941711 51.62062073 C159.62893777 51.57072838 151.05843991 51.52577672 142.4879244 51.48259836 C132.7298101 51.43319643 122.97172922 51.37828927 113.21364725 51.32291877 C93.14246263 51.20915181 73.07124611 51.10230126 53 51 C53.00523682 51.69037354 53.01047363 52.38074707 53.01586914 53.09204102 C53.03677867 56.24885126 53.04970442 59.40564686 53.0625 62.5625 C53.07087891 63.64853516 53.07925781 64.73457031 53.08789062 65.85351562 C53.12238968 77.20370379 53.12238968 77.20370379 52 82 C49.70229601 83.89656851 47.85195222 85.09424293 45.25 86.4375 C44.5286084 86.83582031 43.8072168 87.23414063 43.06396484 87.64453125 C41.38597185 88.56768345 39.70164498 89.47937378 38.01269531 90.38232422 C34.49975147 92.26860995 31.01081721 94.19589141 27.5234375 96.12890625 C23.59156639 98.30741743 19.65883422 100.48403765 15.71582031 102.64233398 C15.09671783 102.9815538 14.47761536 103.32077362 13.8397522 103.67027283 C12.13798527 104.60208431 10.43547056 105.53252975 8.73291016 106.46289062 C5.91105457 108.00470894 5.91105457 108.00470894 3 110 C2.01 110 1.02 110 0 110 C0 73.7 0 37.4 0 0 Z " fill="#5646E4" transform="translate(95,79)"/>
</svg>

